<?xml version="1.0" encoding="UTF-8" standalone="no"?>
<!-- Created with Inkscape (http://www.inkscape.org/) -->

<svg
   width="120mm"
   height="120mm"
   viewBox="0 0 120 120"
   version="1.1"
   id="svg1"
   inkscape:version="1.3.2 (091e20e, 2023-11-25, custom)"
   sodipodi:docname="hallo.svg"
   xmlns:inkscape="http://www.inkscape.org/namespaces/inkscape"
   xmlns:sodipodi="http://sodipodi.sourceforge.net/DTD/sodipodi-0.dtd"
   xmlns="http://www.w3.org/2000/svg"
   xmlns:svg="http://www.w3.org/2000/svg">
  <sodipodi:namedview
     id="namedview1"
     pagecolor="#ffffff"
     bordercolor="#000000"
     borderopacity="0.25"
     inkscape:showpageshadow="2"
     inkscape:pageopacity="0.0"
     inkscape:pagecheckerboard="0"
     inkscape:deskcolor="#d1d1d1"
     inkscape:document-units="px"
     showguides="true"
     inkscape:zoom="1"
     inkscape:cx="190"
     inkscape:cy="204.5"
     inkscape:window-width="1366"
     inkscape:window-height="705"
     inkscape:window-x="-8"
     inkscape:window-y="-8"
     inkscape:window-maximized="1"
     inkscape:current-layer="layer1">
    <sodipodi:guide
       position="56.885416,124.07708"
       orientation="0,-1"
       id="guide3"
       inkscape:locked="false" />
  </sodipodi:namedview>
  <defs
     id="defs1">
    <inkscape:path-effect
       effect="fillet_chamfer"
       id="path-effect164"
       is_visible="true"
       lpeversion="1"
       nodesatellites_param="F,0,0,1,0,0,0,1 @ F,0,0,1,0,0,0,1 @ F,0,0,1,0,0,0,1 @ F,0,0,1,0,0,0,1"
       radius="0"
       unit="px"
       method="auto"
       mode="F"
       chamfer_steps="1"
       flexible="false"
       use_knot_distance="true"
       apply_no_radius="true"
       apply_with_radius="true"
       only_selected="false"
       hide_knots="false" />
    <inkscape:path-effect
       effect="fillet_chamfer"
       id="path-effect163"
       is_visible="true"
       lpeversion="1"
       nodesatellites_param="F,0,0,1,0,0,0,1 @ F,0,0,1,0,0,0,1 @ F,0,0,1,0,11.883487,0,1 @ F,0,0,1,0,0,0,1"
       radius="0"
       unit="px"
       method="auto"
       mode="F"
       chamfer_steps="1"
       flexible="false"
       use_knot_distance="true"
       apply_no_radius="true"
       apply_with_radius="true"
       only_selected="false"
       hide_knots="false" />
    <inkscape:path-effect
       effect="fillet_chamfer"
       id="path-effect141"
       is_visible="true"
       lpeversion="1"
       nodesatellites_param="F,0,0,1,0,0,0,1 @ F,0,0,1,0,0,0,1 @ F,0,0,1,0,0,0,1 @ F,0,0,1,0,0,0,1"
       radius="0"
       unit="px"
       method="auto"
       mode="F"
       chamfer_steps="1"
       flexible="false"
       use_knot_distance="true"
       apply_no_radius="true"
       apply_with_radius="true"
       only_selected="false"
       hide_knots="false" />
    <inkscape:path-effect
       effect="fillet_chamfer"
       id="path-effect140"
       is_visible="true"
       lpeversion="1"
       nodesatellites_param="F,0,0,1,0,0,0,1 @ F,0,0,1,0,0,0,1 @ F,0,0,1,0,0,0,1 @ F,0,0,1,0,0,0,1"
       radius="0"
       unit="px"
       method="auto"
       mode="F"
       chamfer_steps="1"
       flexible="false"
       use_knot_distance="true"
       apply_no_radius="true"
       apply_with_radius="true"
       only_selected="false"
       hide_knots="false" />
    <inkscape:path-effect
       effect="fillet_chamfer"
       id="path-effect4"
       is_visible="true"
       lpeversion="1"
       nodesatellites_param="F,0,0,1,0,0,0,1 @ F,0,0,1,0,0,0,1 @ F,0,0,1,0,31.75,0,1 @ F,0,0,1,0,33.258125,0,1"
       radius="0"
       unit="px"
       method="auto"
       mode="F"
       chamfer_steps="1"
       flexible="false"
       use_knot_distance="true"
       apply_no_radius="true"
       apply_with_radius="true"
       only_selected="false"
       hide_knots="false" />
    <clipPath
       clipPathUnits="userSpaceOnUse"
       id="clipPath68">
      <path
         id="path69"
         style="fill:#ff0000;fill-opacity:1;fill-rule:nonzero;stroke:none;stroke-width:0.264583"
         d="M 7.7392689,67.448108 48.829599,103.97595 65.003806,85.781512 c -0.30118,-1.346379 -0.583925,-2.990674 -0.824918,-4.9483 -0.04941,-0.401369 -0.083,-0.804299 -0.111614,-1.207589 -0.04188,0.05926 -0.07969,0.120188 -0.129101,0.176329 -8.538594,9.707436 -11.387842,7.383733 -3.088714,-2.093736 0.01323,-0.281562 0.01196,-0.358977 0.01362,-0.471891 -0.817997,-0.53323 -2.011598,-3.066561 -3.075047,-7.733361 -0.133369,-0.585308 -0.230961,-1.177788 -0.266296,-1.777934 -0.04232,-0.706361 -0.08145,-1.412824 -0.105954,-2.120089 -0.0318,-0.727498 -0.07356,-1.454833 -0.09097,-2.182829 -0.01748,-0.610295 -0.02722,-1.220865 -0.037,-1.831311 -0.0085,-0.336308 -0.01536,-0.672475 -0.03073,-1.00846 -0.224323,-4.905922 0.254816,-7.701456 0.908262,-8.354771 0.840141,-0.839969 1.968904,1.861025 2.261659,8.168439 0.01724,0.371547 0.02545,0.743245 0.0348,1.115104 0.0033,0.199936 0.0088,0.399932 0.0122,0.599951 0.08555,-0.546242 0.190573,-0.998638 0.310505,-1.355755 -0.239054,-0.426643 -0.303671,-0.788565 -0.145481,-1.067602 0.305556,-0.53889 1.429236,-0.772586 3.554887,-0.630269 0.336167,-2.251733 0.798525,-3.679483 1.271706,-4.276507 0.845302,-1.066507 1.720827,0.50688 1.963505,4.677854 2.27889,0.358831 5.117507,0.928442 8.768736,1.804515 L 41.029446,29.999827 Z M 63.255412,63.30448 c 0.158087,0.730343 0.308055,1.54322 0.437499,2.498484 0.01268,-0.535795 0.02755,-1.071566 0.04938,-1.607249 0.0069,-0.168257 0.01887,-0.315003 0.02676,-0.478886 C 63.590915,63.576779 63.420839,63.4399 63.25542,63.30448 Z m 4.12932,3.020871 c -0.0026,0.151528 5.52e-4,0.303142 -0.0011,0.454683 0.04232,-0.137479 0.08674,-0.258156 0.133267,-0.366916 -0.04462,-0.0294 -0.09009,-0.05921 -0.132174,-0.08777 z m 3.184029,2.089964 c 0.159642,0.638374 0.308336,1.366105 0.442661,2.175334 1.323065,0.426667 2.405885,0.867584 3.266973,1.29664 0.225018,-0.022 0.448835,-0.05765 0.670894,-0.100564 0.07348,-0.01369 0.146083,-0.03057 0.218654,-0.04763 -1.726057,-0.754347 -3.477505,-1.516567 -3.146405,-1.786167 0.0927,-0.07548 0.357262,-0.110473 0.82706,-0.09657 -0.770955,-0.484097 -1.54408,-0.968703 -2.279837,-1.44105 z m -0.897425,6.814211 c -0.02778,0.275067 -0.04312,0.5528 -0.08024,0.820617 -0.350352,2.527667 -0.73957,4.467873 -1.124061,5.835568 l 6.303989,-7.091385 c -0.88968,-0.04676 -2.067514,-0.259088 -3.519641,-0.681854 -0.08757,0.238044 -0.175863,0.483478 -0.37094,0.632724 -0.207304,0.158612 -0.410865,0.275492 -0.61211,0.353334 0.03243,0.339997 0.06885,0.679704 0.112222,1.018678 0.03668,0.297286 0.150108,0.729588 0.156126,1.012071 6.08e-4,0.02536 -0.019,-0.04698 -0.02867,-0.07043 -0.328979,-0.800377 -0.601651,-1.386778 -0.836679,-1.829326 z m 6.065573,-2.479199 c 0.188111,0.136599 0.359933,0.270695 0.496381,0.399088 l 0.594658,-0.668933 c -0.03771,-0.01781 -0.08912,-0.03887 -0.127799,-0.05691 -0.02852,0.01086 -0.05509,0.0215 -0.08411,0.0324 l -0.187669,0.07033 c -0.228381,0.08151 -0.458533,0.1576 -0.691456,0.224029 z" />
    </clipPath>
    <clipPath
       clipPathUnits="userSpaceOnUse"
       id="clipPath68-9">
      <path
         id="path69-0"
         style="fill:#ff0000;fill-opacity:1;fill-rule:nonzero;stroke:none;stroke-width:0.264583"
         d="M 7.7392689,67.448108 48.829599,103.97595 65.003806,85.781512 c -0.30118,-1.346379 -0.583925,-2.990674 -0.824918,-4.9483 -0.04941,-0.401369 -0.083,-0.804299 -0.111614,-1.207589 -0.04188,0.05926 -0.07969,0.120188 -0.129101,0.176329 -8.538594,9.707436 -11.387842,7.383733 -3.088714,-2.093736 0.01323,-0.281562 0.01196,-0.358977 0.01362,-0.471891 -0.817997,-0.53323 -2.011598,-3.066561 -3.075047,-7.733361 -0.133369,-0.585308 -0.230961,-1.177788 -0.266296,-1.777934 -0.04232,-0.706361 -0.08145,-1.412824 -0.105954,-2.120089 -0.0318,-0.727498 -0.07356,-1.454833 -0.09097,-2.182829 -0.01748,-0.610295 -0.02722,-1.220865 -0.037,-1.831311 -0.0085,-0.336308 -0.01536,-0.672475 -0.03073,-1.00846 -0.224323,-4.905922 0.254816,-7.701456 0.908262,-8.354771 0.840141,-0.839969 1.968904,1.861025 2.261659,8.168439 0.01724,0.371547 0.02545,0.743245 0.0348,1.115104 0.0033,0.199936 0.0088,0.399932 0.0122,0.599951 0.08555,-0.546242 0.190573,-0.998638 0.310505,-1.355755 -0.239054,-0.426643 -0.303671,-0.788565 -0.145481,-1.067602 0.305556,-0.53889 1.429236,-0.772586 3.554887,-0.630269 0.336167,-2.251733 0.798525,-3.679483 1.271706,-4.276507 0.845302,-1.066507 1.720827,0.50688 1.963505,4.677854 2.27889,0.358831 5.117507,0.928442 8.768736,1.804515 L 41.029446,29.999827 Z M 63.255412,63.30448 c 0.158087,0.730343 0.308055,1.54322 0.437499,2.498484 0.01268,-0.535795 0.02755,-1.071566 0.04938,-1.607249 0.0069,-0.168257 0.01887,-0.315003 0.02676,-0.478886 C 63.590915,63.576779 63.420839,63.4399 63.25542,63.30448 Z m 4.12932,3.020871 c -0.0026,0.151528 5.52e-4,0.303142 -0.0011,0.454683 0.04232,-0.137479 0.08674,-0.258156 0.133267,-0.366916 -0.04462,-0.0294 -0.09009,-0.05921 -0.132174,-0.08777 z m 3.184029,2.089964 c 0.159642,0.638374 0.308336,1.366105 0.442661,2.175334 1.323065,0.426667 2.405885,0.867584 3.266973,1.29664 0.225018,-0.022 0.448835,-0.05765 0.670894,-0.100564 0.07348,-0.01369 0.146083,-0.03057 0.218654,-0.04763 -1.726057,-0.754347 -3.477505,-1.516567 -3.146405,-1.786167 0.0927,-0.07548 0.357262,-0.110473 0.82706,-0.09657 -0.770955,-0.484097 -1.54408,-0.968703 -2.279837,-1.44105 z m -0.897425,6.814211 c -0.02778,0.275067 -0.04312,0.5528 -0.08024,0.820617 -0.350352,2.527667 -0.73957,4.467873 -1.124061,5.835568 l 6.303989,-7.091385 c -0.88968,-0.04676 -2.067514,-0.259088 -3.519641,-0.681854 -0.08757,0.238044 -0.175863,0.483478 -0.37094,0.632724 -0.207304,0.158612 -0.410865,0.275492 -0.61211,0.353334 0.03243,0.339997 0.06885,0.679704 0.112222,1.018678 0.03668,0.297286 0.150108,0.729588 0.156126,1.012071 6.08e-4,0.02536 -0.019,-0.04698 -0.02867,-0.07043 -0.328979,-0.800377 -0.601651,-1.386778 -0.836679,-1.829326 z m 6.065573,-2.479199 c 0.188111,0.136599 0.359933,0.270695 0.496381,0.399088 l 0.594658,-0.668933 c -0.03771,-0.01781 -0.08912,-0.03887 -0.127799,-0.05691 -0.02852,0.01086 -0.05509,0.0215 -0.08411,0.0324 l -0.187669,0.07033 c -0.228381,0.08151 -0.458533,0.1576 -0.691456,0.224029 z" />
    </clipPath>
    <clipPath
       clipPathUnits="userSpaceOnUse"
       id="clipPath94">
      <path
         id="path95"
         style="fill:#ff0000;fill-opacity:1;fill-rule:nonzero;stroke:none;stroke-width:0.264584"
         d="m 16.289985,-139.1456 56.39021,0.32601 0.0049,-1.47947 0.01312,-3.93511 0.01511,-4.53093 0.01189,-3.56614 c -0.347242,-0.49199 -0.718028,-0.96607 -1.109412,-1.4239 -0.439929,-0.51995 -0.919466,-0.99811 -1.430772,-1.44696 -0.578176,-0.51748 -1.164803,-1.02635 -1.770071,-1.51195 -0.416183,-0.33969 -0.212794,-0.1764 -0.608672,-0.49083 -0.137104,-0.1089 -0.250534,-0.20753 -0.383946,-0.31487 L 16.352247,-157.815 Z m 70.610229,-18.26154 c 0.216355,1.00793 0.410043,2.21165 0.570359,3.61137 l 0.01203,-3.608 z" />
    </clipPath>
  </defs>
  <g
     inkscape:label="Layer 1"
     inkscape:groupmode="layer"
     id="layer1">
    <path
       id="rect2"
       style="fill:#000000;stroke-width:0.280305"
       transform="rotate(48.364044,19.245091,73.278422)"
       d="m 11.339487,63.398205 c -0.895728,1.02295 -1.417889,2.257286 -1.417889,3.58926 0,3.551937 3.712332,6.412015 8.323597,6.412015 l 37.601986,-5.16e-4 c -0.03085,-0.349934 -0.06121,-0.699957 -0.09209,-1.049875 -0.141929,-1.21859 -0.29444,-2.436088 -0.451183,-3.652896 -0.165431,-1.199366 -0.291611,-2.403989 -0.443245,-3.605046 -0.02274,-0.185072 -0.04538,-0.369862 -0.06812,-0.554936 -0.182881,-1.488156 -0.293187,-2.802246 -0.348818,-3.960162 l -36.198624,1.8e-5 c -2.88204,0 -5.412723,1.117223 -6.905605,2.822138 z m 46.591841,-2.822181 c 0.195141,1.035887 0.377268,2.201051 0.537833,3.507976 l 0.06675,0.544036 c 0.150594,1.197791 0.277524,2.398775 0.441915,3.594874 0.162908,1.265834 0.322797,2.532521 0.467184,3.800567 0.04047,0.45856 0.08063,0.917207 0.120404,1.375815 l 12.053262,-2.21e-4 c 0.571854,0 1.129703,-0.04464 1.668538,-0.12846 -0.0382,-0.01281 -0.07823,-0.0218 -0.115268,-0.03678 -0.146618,-0.05932 -0.274423,-0.150617 -0.397596,-0.250425 -0.997032,0.311084 -1.720087,0.01843 -2.611263,-0.596886 -1.305316,-0.862713 -2.639873,-1.684938 -3.90236,-2.609607 -1.301718,-1.087188 -2.462111,-2.315379 -3.67908,-3.493904 -0.125097,-0.101951 -0.317285,-0.155297 -0.375235,-0.305913 -0.0294,-0.0764 0.165393,-0.01219 0.242557,-0.03951 0.348945,-0.123596 0.750242,-0.17047 1.031092,-0.411639 0.108488,-0.09316 0.175128,-0.219952 0.234759,-0.352751 -0.751159,0.375056 -1.585051,0.565829 -2.374305,0.856267 -0.291883,-0.265663 -0.605437,-0.509248 -0.87556,-0.79701 -0.08432,-0.08982 -0.121531,-0.214233 -0.177182,-0.324144 -0.31828,-0.628606 -0.586622,-1.281576 -0.880533,-1.921554 -0.394828,-0.859713 -0.737654,-1.659131 -1.041788,-2.410619 z m 4.445558,4.02e-4 c 0.124309,0.268576 0.248554,0.535614 0.375042,0.819477 0.06336,0.142188 0.126574,0.284661 0.190525,0.426582 0.07552,0.167595 0.151958,0.334811 0.227557,0.502372 0.592004,0.184023 1.184116,0.672169 1.628537,0.990675 0.638551,0.562488 1.238109,1.163562 1.840762,1.761521 0.150485,-1.773263 0.35874,-3.267393 0.599669,-4.50055 z m -1.852116,2.896252 c -0.03672,0.08797 -0.168875,0.339453 -0.110388,0.264179 0.08316,-0.107011 0.148205,-0.201928 0.213171,-0.296576 z m 9.911542,-2.896341 c 0.06681,1.497842 0.02476,3.381632 -0.173744,5.662576 -0.0185,0.212546 0.0016,0.06864 -0.02773,0.05763 0.02052,0.140544 0.07214,0.43691 0.10151,0.643385 0.06032,0.04781 0.123997,0.09241 0.180666,0.128109 0.489478,0.308337 0.797307,0.414629 1.346343,0.654767 0.304133,0.105458 0.607143,0.214048 0.912444,0.316064 0.02101,-0.0087 0.04277,-0.01331 0.0639,-0.02133 C 72.640792,67.56809 72.491,67.092778 72.34804,66.640119 72.29055,66.439426 72.235179,66.237812 72.177521,66.037028 71.916105,65.851271 71.849156,65.728298 72.081881,65.69894 71.821922,64.78582 71.570234,63.870235 71.3921,62.937472 71.283847,62.154835 71.290128,61.36538 71.30637,60.576073 Z m 1.645572,5.122611 c 0.03207,0.112655 0.06332,0.225526 0.09564,0.338088 1.153927,0.819958 6.185018,2.890855 6.873483,3.817488 0.560719,-0.863421 0.891163,-1.8321 0.891163,-2.866852 0,-2.620936 -2.024358,-4.860867 -4.936602,-5.857067 -0.005,0.401048 -0.0064,0.803492 0.03754,1.180462 0.223191,1.118797 0.551798,2.212837 0.865798,3.308607 0.109861,0.335541 0.198159,0.694034 0.374992,1.005427 0.07553,0.05424 0.141591,0.112615 0.134058,0.194539 -0.0031,0.03341 -0.04817,-0.04779 -0.06703,-0.07549 -0.02581,-0.03789 -0.04451,-0.07939 -0.06703,-0.119049 -0.04872,-0.03498 -0.10161,-0.06875 -0.141186,-0.104074 -0.355726,-0.176216 -0.181513,-0.116716 -0.515873,-0.195156 -2.124102,-0.498332 -3.185072,-0.672322 -3.544962,-0.626923 z m 0.827956,-5.038136 c 0.08618,1.57121 0.396561,2.270317 1.310055,0.236688 C 73.79772,60.791195 73.35919,60.714424 72.90984,60.660812 Z m -2.769984,6.012481 c -0.01136,-0.0072 -0.01174,0.02787 -0.0057,0.03987 0.02853,0.05686 0.0717,0.106796 0.119211,0.153683 -0.0138,-0.04624 -0.01411,-0.03583 -0.0318,-0.09879 -0.02715,-0.03161 -0.04644,-0.07256 -0.08171,-0.09476 z m 4.444085,4.415277 c -0.04704,0.0724 -0.08898,0.158233 -0.132746,0.238773 0.19919,-0.08987 0.182005,-0.132564 0.132746,-0.238773 z m 1.578452,-0.951143 c 0.03799,0.263142 0.104454,0.525099 0.09404,0.790239 -0.02508,0.638178 -0.244154,1.238675 -0.64122,1.688891 1.305684,-0.549215 2.394613,-1.361296 3.154776,-2.343238 -0.420853,0.07733 -1.237307,0.04746 -2.607592,-0.135892 z"
       clip-path="url(#clipPath68)" />
    <path
       style="fill:#000000;stroke-width:0.264583"
       id="rect3"
       width="67.204163"
       height="38.893749"
       x="22.754168"
       y="35.983334"
       ry="0"
       sodipodi:type="rect"
       d="M 22.754168,35.983334 H 89.95833 v 7.143749 a 31.75,31.75 135 0 1 -31.75,31.75 H 56.012293 A 33.258125,33.258125 45 0 1 22.754168,41.618958 Z"
       transform="matrix(0.77067456,-0.66648431,0.66648431,0.77067456,-3.2883429,82.001048)"
       inkscape:path-effect="#path-effect4" />
    <rect
       style="fill:#000000;stroke-width:0.280305"
       id="rect2-9"
       width="71.130737"
       height="13.957728"
       x="40.916546"
       y="3.9374549"
       rx="10.320657"
       transform="rotate(47.798902)"
       ry="6.9788642" />
    <rect
       style="fill:#000000;stroke-width:0.280305"
       id="rect2-1"
       width="71.130737"
       height="13.957728"
       x="43.341171"
       y="-32.678211"
       rx="9.4069185"
       transform="rotate(48.046012)"
       ry="6.9788642" />
    <rect
       style="fill:#000000;stroke-width:0.280305"
       id="rect2-6"
       width="71.130737"
       height="13.957728"
       x="35.144466"
       y="-14.511575"
       rx="10.872117"
       transform="rotate(47.798902)"
       ry="6.9788642" />
    <path
       id="rect69"
       d="m 32.527158,73.104127 c 11.259663,6.783275 10.715982,3.395532 8.898584,-5.500379 l 10.148801,5.298857 -12.39521,11.268119 z"
       style="fill:#000000;stroke-width:0.0925616"
       sodipodi:nodetypes="ccccc" />
    <rect
       style="fill:#000000;stroke-width:0.321638"
       id="rect2-9-5"
       width="71.131241"
       height="18.377525"
       x="16.320959"
       y="-157.46335"
       rx="10.312079"
       transform="matrix(0.005058,0.99998329,-0.87488,0.00333492,-35.552714,5.6548298)"
       ry="9.1887627"
       clip-path="url(#clipPath94)" />
    <path
       id="rect69-2"
       d="m 59.266672,47.83372 c 11.259663,6.783275 10.715982,3.395532 8.898584,-5.500379 l 10.148801,5.298857 -12.39521,11.268119 z"
       style="fill:#000000;stroke-width:0.0925616"
       sodipodi:nodetypes="ccccc" />
    <path
       id="rect69-1"
       d="m 46.29629,60.874151 c 11.301395,6.713515 10.736775,3.329199 8.864399,-5.555303 l 10.181376,5.235995 -12.32529,11.344556 z"
       style="fill:#000000;stroke-width:0.0925616"
       sodipodi:nodetypes="ccccc" />
    <rect
       style="fill:#000000;stroke-width:0.227068"
       id="rect163"
       width="59.253647"
       height="18.158375"
       x="-32.030167"
       y="84.630615"
       transform="rotate(-41.948597)" />
    <path
       id="rect69-1-4"
       d="m 77.122943,38.468553 c 8.596232,9.944729 9.131555,6.555655 10.166798,-2.464791 l 8.001312,8.188715 -15.281789,6.861392 z"
       style="fill:#000000;stroke-width:0.0925616"
       sodipodi:nodetypes="ccccc" />
    <path
       id="path163"
       style="stroke-width:0.533795"
       d="M 33.762544,97.136246 C 30.303306,100.95054 25.023708,102.64544 19.945237,101.57197 14.866763,100.49851 10.776141,96.823 9.2396157,91.952735 7.7030897,87.082469 8.9586927,81.771925 12.525667,78.054436 11.582257,93.010587 17.4313,100.68899 33.762544,97.136246 Z"
       sodipodi:nodetypes="csscc" />
    <path
       id="path163-8"
       style="stroke-width:0.533795"
       d="m 60.246619,11.181735 c 3.12818,-4.0901891 8.247564,-6.2206164 13.398011,-5.5755712 5.150447,0.6450447 9.534081,3.9656368 11.472466,8.6903672 1.938387,4.724729 1.131241,10.121666 -2.11239,14.124399 C 82.694205,13.438271 76.223595,6.2758455 60.246619,11.181735 Z"
       sodipodi:nodetypes="csscc" />
    <path
       id="path163-5"
       style="stroke-width:0.393502"
       d="m 21.46332,104.2896 c -2.550073,2.81181 -6.442073,4.06125 -10.185807,3.26992 -3.7437365,-0.79133 -6.7592505,-3.50084 -7.8919425,-7.09109 -1.132692,-3.590251 -0.20709,-7.505064 2.422403,-10.245513 -0.69546,11.025343 3.616322,16.685683 15.6553465,14.066683 z"
       sodipodi:nodetypes="csscc" />
    <path
       id="path163-5-1"
       style="stroke-width:0.393502"
       d="M 74.985082,3.2190903 C 77.794708,0.66661005 81.789152,-0.20124332 85.439001,0.94782606 89.08885,2.0968956 91.82869,5.0848793 92.609474,8.7677131 93.390256,12.450547 92.091025,16.257713 89.209241,18.731497 90.965885,7.8247996 87.220719,1.7746231 74.985082,3.2190903 Z"
       sodipodi:nodetypes="csscc" />
  </g>
</svg>
